<svg width="1920" height="1080" viewBox="0 0 1920 1080" xmlns="http://www.w3.org/2000/svg"><rect width="1920" height="1080" fill="#5c3187"/><path d="M 0,1080 C 0,1080 0,270 0,270 C 181.04712812960233,249.34646539027983 362.09425625920466,228.69293078055966 382,205 C 401.90574374079534,181.30706921944034 260.67010309278356,154.5747422680412 354,186 C 447.32989690721644,217.4252577319588 775.2253313696613,307.0081001472754 889,310 C 1002.7746686303387,312.9918998527246 902.4285714285713,229.3928571428571 994,239 C 1085.5714285714287,248.6071428571429 1369.0603829160534,351.42047128129605 1543,350 C 1716.9396170839466,348.57952871870395 1781.329896907216,242.9252577319587 1860,221 C 1938.670103092784,199.0747422680413 2031.6200294550813,260.87849779086895 2044,283 C 2056.3799705449187,305.12150220913105 1988.1899852724594,287.5607511045655 1920,270 C 1920,270 1920,1080 1920,1080 Z" fill="#985fb4" opacity="0.15"/><path d="M 0,1080 C 0,1080 0,540 0,540 C 120.6493004418262,533.1730486008837 241.2986008836524,526.3460972017673 346,522 C 450.7013991163476,517.6539027982327 539.4548969072165,515.7886597938144 692,529 C 844.5451030927835,542.2113402061856 1060.8818114874816,570.4992636229749 1039,583 C 1017.1181885125184,595.5007363770251 757.017857142857,592.2142857142856 759,588 C 760.982142857143,583.7857142857144 1025.04675994109,578.6435935198823 1322,562 C 1618.95324005891,545.3564064801177 1948.7951030927838,517.2113402061855 2041,520 C 2133.204896907216,522.7886597938145 1987.7728276877763,556.5110456553756 1928,565 C 1868.2271723122237,573.4889543446244 1894.113586156112,556.7444771723121 1920,540 C 1920,540 1920,1080 1920,1080 Z" fill="#985fb4" opacity="0.3"/><path d="M 0,1080 C 0,1080 0,810 0,810 C -81.62002945508098,778.5677466863034 -163.24005891016196,747.1354933726068 48,769 C 259.24005891016196,790.8645066273932 763.3402061855669,866.0257731958764 841,882 C 918.6597938144331,897.9742268041236 569.8792341678941,854.761413843888 689,807 C 808.1207658321059,759.238586156112 1395.1428571428569,706.9285714285714 1474,709 C 1552.8571428571431,711.0714285714286 1123.5493372606777,767.5243004418262 1207,813 C 1290.4506627393223,858.4756995581738 1886.6597938144328,892.9742268041236 2049,863 C 2211.3402061855672,833.0257731958764 1939.8114874815906,738.5787923416789 1846,719 C 1752.1885125184094,699.4212076583211 1836.0942562592047,754.7106038291606 1920,810 C 1920,810 1920,1080 1920,1080 Z" fill="#985fb4" opacity="0.44999999999999996"/></svg>