<svg width="1920" height="1080" viewBox="0 0 1920 1080" xmlns="http://www.w3.org/2000/svg"><path d="M1469,565.9999999999999C1463.6666666666667,633.3438297947033,1403.410660462256,718.1289608066388,1375.0954559391703,772.03148938411C1346.7802514160846,825.9340179615813,1346.23266480083,874.2899304298746,1299.1087728614862,889.4151714648274C1251.9848809221423,904.5404124997801,1152.4376281978437,877.7078658106499,1092.352104303107,862.7829355938266C1032.2665804083701,847.8580053770032,977.0088997901343,785.7108408123587,938.5956294930654,799.8655901638872C900.1823591959966,814.0203395154157,913.8146953476589,962.6579948243915,861.8724825206937,947.7114317029974C809.9302696937284,932.7648685816033,677.6155030064247,760.8936736898911,626.9423525312736,710.1862114355224C576.2692020561226,659.4787491811537,541.1806033096913,682.591070227371,557.8335796697875,643.4666581767854C574.4865560298837,604.3422461261997,716.342081881603,516.5403448673505,726.8602106918507,475.4397391320084C737.3783395020985,434.3391333966662,614.5857209799154,443.0548855705666,620.9423525312736,396.86302376473236C627.2989840826318,350.6711619588981,710.4966935002861,211.12084368132432,764.9999999999998,198.2885682970027C819.5033064997134,185.4562929126811,885.7802155043016,329.413371563773,947.9621915295556,319.8693714588027C1010.1441675548097,310.32537135383234,1091.0305688732815,130.28713189811876,1138.091856151524,141.02456766718086C1185.1531434297667,151.76200343624296,1185.4959819010703,346.46999558172377,1230.3299151990113,384.29398607317523C1275.1638484969524,422.1179765646267,1367.3171084723388,337.6841749614188,1407.0954559391703,367.9685106158896C1446.8738034060018,398.2528462703604,1474.3333333333333,498.65617020529646,1469,565.9999999999999C1463.6666666666667,633.3438297947033,1403.410660462256,718.1289608066388,1375.0954559391703,772.03148938411" fill="#e8e3e3"/></svg>