<svg width="1920" height="1080" viewBox="0 0 1920 1080" xmlns="http://www.w3.org/2000/svg"><rect width="1920" height="1080" fill="#050505"/><path d="M1311.2072452459981,539.9999999999999C1320.7683026932311,604.6484311661739,1532.0540742505718,637.8589489593124,1533.4176240660327,712.848601151563C1534.7811738814935,787.8382533438136,1376.8897820456068,935.6029534025434,1319.3885441387629,989.9379131535034C1261.887306231919,1044.2728729044632,1256.4278003081943,1029.0408110531835,1188.4101966249684,1038.8583596573224C1120.3925929417426,1048.6759082614612,975.1095991320828,1036.7170576761137,911.282922039408,1048.8432047783372C847.4562449467332,1060.9693518805607,877.7323205129821,1132.1439178378055,805.4501340689194,1111.6152422706632C733.1679476248567,1091.086566703521,498.1759521061233,995.8158560054852,477.5898033750316,925.671151375484C457.00365464393985,855.5264467454828,675.2898534711735,763.5128487740087,681.933241682369,690.7470144906558C688.5766298935646,617.9811802073029,534.9862523257477,561.711207951484,517.4501326422048,489.076145675367C499.91401295866194,416.44108339925,544.9582123548126,305.07060406077517,576.7165235811118,254.93664083395373C608.474834807411,204.8026776071323,650.0722669236171,236.04732932359127,707.9999999999998,188.27236631443833C765.9277330763824,140.4974033052854,855.9887600064293,4.104575460957783,924.2829220394075,-31.713137220963972C992.5770840723857,-67.53084990288573,1065.9782959176312,-51.77161676618006,1117.7649721978692,-26.633909777092185C1169.5516484781072,-1.4962027880043145,1175.288595190041,60.51445072496131,1235.0029797208354,119.11310471356325C1294.7173642516298,177.71175870216518,1463.3505684617746,254.81019827344667,1476.0512793826351,324.95801415451945C1488.7519903034956,395.10583003559225,1301.6461877987651,475.351568833826,1311.2072452459981,539.9999999999999C1320.7683026932311,604.6484311661739,1532.0540742505718,637.8589489593124,1533.4176240660327,712.848601151563" fill="#f3f1f1"/></svg>