<svg width="1920" height="1080" viewBox="0 0 1920 1080" xmlns="http://www.w3.org/2000/svg"><rect width="1920" height="1080" fill="#15a85c"/><path d="M1920,1080C1600.5,1114.6666666666667,291.8333333333333,1189.1666666666667,0,1080C-291.8333333333333,970.8333333333334,111,527.8333333333334,169,425C227,322.1666666666667,289.6666666666667,417.6666666666667,348,463C406.3333333333333,508.3333333333333,460.8333333333333,707.1666666666666,519,697C577.1666666666666,686.8333333333334,638.3333333333334,363.1666666666667,697,402C755.6666666666666,440.8333333333333,813.8333333333334,947.6666666666666,871,930C928.1666666666666,912.3333333333334,982,392.5,1040,296C1098,199.5,1160,258.3333333333333,1219,351C1278,443.6666666666667,1335.5,872.8333333333334,1394,852C1452.5,831.1666666666666,1512.3333333333333,263.5,1570,226C1627.6666666666667,188.5,1682.1666666666667,519.3333333333334,1740,627C1797.8333333333333,734.6666666666666,1887,796.5,1917,872C1947,947.5,2239.5,1045.3333333333333,1920,1080C1600.5,1114.6666666666667,291.8333333333333,1189.1666666666667,0,1080" fill="#f5b13d"/></svg>