<svg width="1920" height="1080" viewBox="0 0 1920 1080" xmlns="http://www.w3.org/2000/svg"><rect width="1920" height="1080" fill="#f7f7f7"/><path d="M 0,1080 C 0,1080 0,540 0,540 C -7.254590001980432,661.3681161018085 -14.509180003960864,782.7362322036171 58,722 C 130.50918000396086,661.2637677963829 282.782130013863,418.4231872873402 396,414 C 509.217869986137,409.5768127126598 583.3806599485087,643.5710186470218 530,693 C 476.61934005149135,742.4289813529782 295.6952301921024,607.2927381245727 334,559 C 372.3047698078976,510.7072618754274 629.838419283082,549.258028854688 717,523 C 804.161580716918,496.74197114531205 720.95109267557,405.6751464566755 646,357 C 571.04890732443,308.3248535433245 504.3572100146382,302.04138531860985 585,402 C 665.6427899853618,501.95861468139015 893.6200672658774,708.1593122688851 966,728 C 1038.3799327341226,747.8406877311149 955.1625209218521,581.3213656058496 959,565 C 962.8374790781479,548.6786343941504 1053.7298490467142,682.5552253077169 1160,730 C 1266.2701509532858,777.4447746922831 1387.918082891291,738.4577331632834 1441,651 C 1494.081917108709,563.5422668367166 1478.597819388122,427.61384203914974 1523,453 C 1567.402180611878,478.38615796085026 1671.6906395562214,665.0868986801173 1663,673 C 1654.3093604437786,680.9131013198827 1532.6396223869922,510.0385632403809 1471,405 C 1409.3603776130078,299.9614367596191 1407.7508708958098,260.75884835835905 1498,355 C 1588.2491291041902,449.24115164164095 1770.3568940297685,676.926043326183 1856,730 C 1941.6431059702315,783.073956673817 1930.8215529851159,661.5369783369085 1920,540 C 1920,540 1920,1080 1920,1080 Z" fill="#000000" opacity="0.3"/></svg>