<svg class="w-full -z-10" viewBox="0 0 1000.6800000000001 1000.6800000000001" xmlns="http://www.w3.org/2000/svg" preserveAspectRatio="none"><rect x="0" y="0" width="1000.6800000000001px" height="1000.6800000000001px" fill="#ffffff"/><g id="s"><polygon points="6,2 10,4 10,8 6,10 2,8 2,4" stroke="none" fill="#D92027" stroke-linejoin="round" transform="translate(833.9000000000001, 833.9000000000001) scale(33.356)"/><path d="M9.5,7Q9,9,7,9.5Q5,10,3,9.5Q1,9,0.5,7Q0,5,0.5,3Q1,1,3,0.5Q5,0,7,0.5Q9,1,9.5,3Q10,5,9.5,7Z" stroke="#FF9234" fill="none" transform="translate(333.56000000000006, 833.9000000000001) scale(33.356)"/><polygon points="6,2 10,4 10,8 6,10 2,8 2,4" stroke="#FFCD3C" fill="none" stroke-linejoin="round" transform="translate(-166.78, 833.9000000000001) scale(33.356)"/><path d="M8,6.5Q8,8,6.5,8Q5,8,4.5,7Q4,6,3.5,5.5Q3,5,3,4Q3,3,4,2Q5,1,6.5,1.5Q8,2,8,3.5Q8,5,8,6.5Z" stroke="#35D0BA" fill="none" transform="translate(758.6300000000001, 258.2900000000001) scale(48.41)"/></g></svg>