<svg xmlns="http://www.w3.org/2000/svg" viewBox="0 0 981.1500000000001 981.1500000000001"><rect width="981.1500000000001" height="981.1500000000001" fill="#ffffff" id="bg"/><g><g transform="translate(53.145625,&#10;                                53.145625) rotate(110, 28.616875, 28.616875)"><svg xmlns="http://www.w3.org/2000/svg" id="Layer_1" data-name="Layer 1" viewBox="0 0 100 100" width="58.23375" height="58.23375"><path d="M100,100A50,50,0,0,0,0,100Z" fill="#675FEA"/></svg></g><g transform="translate(216.670625,&#10;                                53.145625) rotate(110, 28.616875, 28.616875)"><svg xmlns="http://www.w3.org/2000/svg" id="Layer_1" data-name="Layer 1" viewBox="0 0 100 100" width="58.23375" height="58.23375"><path d="M50,100a50,50,0,1,1,50-50v50Z" fill="#4F46EF"/></svg></g><g transform="translate(53.145625,&#10;                                216.670625) rotate(110, 28.616875, 28.616875)"><svg xmlns="http://www.w3.org/2000/svg" id="Layer_1" data-name="Layer 1" viewBox="0 0 100 100" width="58.23375" height="58.23375"><path d="M50,100a50,50,0,1,1,50-50v50Z" fill="#4F46EF"/></svg></g><g transform="translate(380.195625,&#10;                                53.145625) rotate(110, 28.616875, 28.616875)"><svg xmlns="http://www.w3.org/2000/svg" id="Layer_1" data-name="Layer 1" viewBox="0 0 100 100" width="58.23375" height="58.23375"><path d="M50,100h0A50,50,0,0,1,0,50V0H100V50A50,50,0,0,1,50,100Z" fill="#746FEC"/></svg></g><g transform="translate(543.720625,&#10;                                53.145625) rotate(110, 28.616875, 28.616875)"><svg xmlns="http://www.w3.org/2000/svg" id="Layer_1" data-name="Layer 1" viewBox="0 0 100 100" width="58.23375" height="58.23375"><path d="M50,100a50,50,0,1,1,50-50v50Z" fill="#4F46EF"/></svg></g><g transform="translate(380.195625,&#10;                                216.670625) rotate(110, 28.616875, 28.616875)"><svg xmlns="http://www.w3.org/2000/svg" id="Layer_1" data-name="Layer 1" viewBox="0 0 100 100" width="58.23375" height="58.23375"><path d="M50,100a50,50,0,1,1,50-50v50Z" fill="#4F46EF"/></svg></g><g transform="translate(707.245625,&#10;                                53.145625) rotate(110, 28.616875, 28.616875)"><svg xmlns="http://www.w3.org/2000/svg" id="Layer_1" data-name="Layer 1" viewBox="0 0 100 100" width="58.23375" height="58.23375"><path d="M50,100h0A50,50,0,0,1,0,50V0H100V50A50,50,0,0,1,50,100Z" fill="#746FEC"/></svg></g><g transform="translate(707.245625,&#10;                                216.670625) rotate(110, 28.616875, 28.616875)"><svg xmlns="http://www.w3.org/2000/svg" id="Layer_1" data-name="Layer 1" viewBox="0 0 100 100" width="58.23375" height="58.23375"><path d="M50,100a50,50,0,1,1,50-50v50Z" fill="#4F46EF"/></svg></g><g transform="translate(870.770625,&#10;                                216.670625) rotate(110, 28.616875, 28.616875)"><svg xmlns="http://www.w3.org/2000/svg" id="Layer_1" data-name="Layer 1" viewBox="0 0 100 100" width="58.23375" height="58.23375"><circle cx="50" cy="50" r="50" fill="#4D3FE6"/><path d="M50,100A50,50,0,0,0,50,0Z" fill="#5A4FE8"/></svg></g></g><g><g transform="translate(53.145625,&#10;                                380.195625) rotate(110, 28.616875, 28.616875)"><svg xmlns="http://www.w3.org/2000/svg" id="Layer_1" data-name="Layer 1" viewBox="0 0 100 100" width="58.23375" height="58.23375"><path d="M100,100A50,50,0,0,0,0,100Z" fill="#675FEA"/></svg></g><g transform="translate(216.670625,&#10;                                380.195625) rotate(110, 28.616875, 28.616875)"><svg xmlns="http://www.w3.org/2000/svg" id="Layer_1" data-name="Layer 1" viewBox="0 0 100 100" width="58.23375" height="58.23375"><path d="M100,100A50,50,0,0,0,0,100Z" fill="#675FEA"/></svg></g><g transform="translate(53.145625,&#10;                                543.720625) rotate(110, 28.616875, 28.616875)"><svg xmlns="http://www.w3.org/2000/svg" id="Layer_1" data-name="Layer 1" viewBox="0 0 100 100" width="58.23375" height="58.23375"><path d="M50,100a50,50,0,1,1,50-50v50Z" fill="#4F46EF"/></svg></g><g transform="translate(216.670625,&#10;                                543.720625) rotate(110, 28.616875, 28.616875)"><svg xmlns="http://www.w3.org/2000/svg" id="Layer_1" data-name="Layer 1" viewBox="0 0 100 100" width="58.23375" height="58.23375"><path d="M50,100h0A50,50,0,0,1,0,50V0H100V50A50,50,0,0,1,50,100Z" fill="#746FEC"/></svg></g><g transform="translate(380.195625,&#10;                                380.195625) rotate(110, 28.616875, 28.616875)"><svg xmlns="http://www.w3.org/2000/svg" id="Layer_1" data-name="Layer 1" viewBox="0 0 100 100" width="58.23375" height="58.23375"><circle cx="50" cy="50" r="50" fill="#4D3FE6"/><path d="M50,100A50,50,0,0,0,50,0Z" fill="#5A4FE8"/></svg></g><g transform="translate(543.720625,&#10;                                380.195625) rotate(110, 28.616875, 28.616875)"><svg xmlns="http://www.w3.org/2000/svg" id="Layer_1" data-name="Layer 1" viewBox="0 0 100 100" width="58.23375" height="58.23375"><path d="M100,100A50,50,0,0,0,0,100Z" fill="#675FEA"/></svg></g><g transform="translate(380.195625,&#10;                                543.720625) rotate(110, 28.616875, 28.616875)"><svg xmlns="http://www.w3.org/2000/svg" id="Layer_1" data-name="Layer 1" viewBox="0 0 100 100" width="58.23375" height="58.23375"><path d="M50,100a50,50,0,1,1,50-50v50Z" fill="#4F46EF"/></svg></g><g transform="translate(543.720625,&#10;                                543.720625) rotate(110, 28.616875, 28.616875)"><svg xmlns="http://www.w3.org/2000/svg" id="Layer_1" data-name="Layer 1" viewBox="0 0 100 100" width="58.23375" height="58.23375"><path d="M50,100h0A50,50,0,0,1,0,50V0H100V50A50,50,0,0,1,50,100Z" fill="#746FEC"/></svg></g><g transform="translate(707.245625,&#10;                                380.195625) rotate(110, 28.616875, 28.616875)"><svg xmlns="http://www.w3.org/2000/svg" id="Layer_1" data-name="Layer 1" viewBox="0 0 100 100" width="58.23375" height="58.23375"><path d="M100,100A50,50,0,0,0,0,100Z" fill="#675FEA"/></svg></g><g transform="translate(870.770625,&#10;                                380.195625) rotate(110, 28.616875, 28.616875)"><svg xmlns="http://www.w3.org/2000/svg" id="Layer_1" data-name="Layer 1" viewBox="0 0 100 100" width="58.23375" height="58.23375"><path d="M100,100A50,50,0,0,0,0,100Z" fill="#675FEA"/></svg></g><g transform="translate(707.245625,&#10;                                543.720625) rotate(110, 28.616875, 28.616875)"><svg xmlns="http://www.w3.org/2000/svg" id="Layer_1" data-name="Layer 1" viewBox="0 0 100 100" width="58.23375" height="58.23375"><path d="M100,100A50,50,0,0,0,0,100Z" fill="#675FEA"/></svg></g><g transform="translate(870.770625,&#10;                                543.720625) rotate(110, 28.616875, 28.616875)"><svg xmlns="http://www.w3.org/2000/svg" id="Layer_1" data-name="Layer 1" viewBox="0 0 100 100" width="58.23375" height="58.23375"><path d="M50,100h0A50,50,0,0,1,0,50V0H100V50A50,50,0,0,1,50,100Z" fill="#746FEC"/></svg></g></g><g><g transform="translate(53.145625,&#10;                                707.245625) rotate(110, 28.616875, 28.616875)"><svg xmlns="http://www.w3.org/2000/svg" id="Layer_1" data-name="Layer 1" viewBox="0 0 100 100" width="58.23375" height="58.23375"><path d="M50,100h0A50,50,0,0,1,0,50V0H100V50A50,50,0,0,1,50,100Z" fill="#746FEC"/></svg></g><g transform="translate(216.670625,&#10;                                707.245625) rotate(110, 28.616875, 28.616875)"><svg xmlns="http://www.w3.org/2000/svg" id="Layer_1" data-name="Layer 1" viewBox="0 0 100 100" width="58.23375" height="58.23375"><path d="M100,100A50,50,0,0,0,0,100Z" fill="#675FEA"/></svg></g><g transform="translate(53.145625,&#10;                                870.770625) rotate(110, 28.616875, 28.616875)"><svg xmlns="http://www.w3.org/2000/svg" id="Layer_1" data-name="Layer 1" viewBox="0 0 100 100" width="58.23375" height="58.23375"><path d="M50,100a50,50,0,1,1,50-50v50Z" fill="#4F46EF"/></svg></g><g transform="translate(216.670625,&#10;                                870.770625) rotate(110, 28.616875, 28.616875)"><svg xmlns="http://www.w3.org/2000/svg" id="Layer_1" data-name="Layer 1" viewBox="0 0 100 100" width="58.23375" height="58.23375"><path d="M50,100h0A50,50,0,0,1,0,50V0H100V50A50,50,0,0,1,50,100Z" fill="#746FEC"/></svg></g><g transform="translate(380.195625,&#10;                                707.245625) rotate(110, 28.616875, 28.616875)"><svg xmlns="http://www.w3.org/2000/svg" id="Layer_1" data-name="Layer 1" viewBox="0 0 100 100" width="58.23375" height="58.23375"><circle cx="50" cy="50" r="50" fill="#4D3FE6"/><path d="M50,100A50,50,0,0,0,50,0Z" fill="#5A4FE8"/></svg></g><g transform="translate(380.195625,&#10;                                870.770625) rotate(110, 28.616875, 28.616875)"><svg xmlns="http://www.w3.org/2000/svg" id="Layer_1" data-name="Layer 1" viewBox="0 0 100 100" width="58.23375" height="58.23375"><path d="M50,100a50,50,0,1,1,50-50v50Z" fill="#4F46EF"/></svg></g><g transform="translate(543.720625,&#10;                                870.770625) rotate(110, 28.616875, 28.616875)"><svg xmlns="http://www.w3.org/2000/svg" id="Layer_1" data-name="Layer 1" viewBox="0 0 100 100" width="58.23375" height="58.23375"><path d="M50,100h0A50,50,0,0,1,0,50V0H100V50A50,50,0,0,1,50,100Z" fill="#746FEC"/></svg></g><g transform="translate(707.245625,&#10;                                707.245625) rotate(110, 28.616875, 28.616875)"><svg xmlns="http://www.w3.org/2000/svg" id="Layer_1" data-name="Layer 1" viewBox="0 0 100 100" width="58.23375" height="58.23375"><path d="M100,100A50,50,0,0,0,0,100Z" fill="#675FEA"/></svg></g><g transform="translate(707.245625,&#10;                                870.770625) rotate(110, 28.616875, 28.616875)"><svg xmlns="http://www.w3.org/2000/svg" id="Layer_1" data-name="Layer 1" viewBox="0 0 100 100" width="58.23375" height="58.23375"><path d="M50,100a50,50,0,1,1,50-50v50Z" fill="#4F46EF"/></svg></g><g transform="translate(870.770625,&#10;                                870.770625) rotate(110, 28.616875, 28.616875)"><svg xmlns="http://www.w3.org/2000/svg" id="Layer_1" data-name="Layer 1" viewBox="0 0 100 100" width="58.23375" height="58.23375"><circle cx="50" cy="50" r="50" fill="#4D3FE6"/><path d="M50,100A50,50,0,0,0,50,0Z" fill="#5A4FE8"/></svg></g></g></svg>